<svg width="31" height="24" viewBox="0 0 31 24" fill="none" xmlns="http://www.w3.org/2000/svg">
<g clip-path="url(#clip0_1_37)">
<path d="M28.1279 5.00883C28.3083 5.00883 28.4436 5.09903 28.5338 5.27942C28.624 5.45982 28.7142 5.68531 28.8044 5.95589C28.8946 6.22648 28.8495 6.58727 28.6691 7.03825C28.4887 7.48923 28.3083 8.0755 28.1279 8.79707L27.5868 10.4206C27.4064 10.7814 27.3162 11.4128 27.3162 12.3147V13.3971C27.3162 13.7579 27.226 14.1186 27.0456 14.4794C27.7672 15.5618 28.1279 16.4637 28.1279 17.1853L27.8574 18.2677C27.677 18.9892 27.677 19.5304 27.8574 19.8912L27.5868 21.2441C27.5868 22.1461 27.5417 22.5971 27.4515 22.5971C27.3613 22.5971 27.226 22.7775 27.0456 23.1382L26.775 23.4088C26.5946 23.7696 25.9632 23.95 24.8809 23.95C24.7005 23.95 24.7907 23.7696 25.1515 23.4088L25.9632 22.0559C26.324 21.6951 26.5495 21.2441 26.6397 20.703C26.7299 20.1618 26.7299 19.4853 26.6397 18.6735C26.5495 17.8618 26.4142 17.2755 26.2338 16.9147C25.873 17.2755 25.4221 18.1775 24.8809 19.6206L24.3397 21.7853L23.5279 22.8677C22.9868 23.0481 22.5809 23.0931 22.3103 23.003C22.0397 22.9128 21.9044 22.8677 21.9044 22.8677V22.5971L22.9868 21.5147L24.0691 19.0794C24.4299 18.3579 24.6103 17.8167 24.6103 17.4559L24.3397 16.6441L23.7985 16.3735V16.6441C23.6181 16.6441 23.5279 16.6441 23.5279 16.6441V16.3735V16.9147L23.2574 17.1853C23.2574 17.1853 23.2574 17.0951 23.2574 16.9147L22.9868 15.8324L21.3632 15.2912L21.0926 15.5618C19.4691 16.2833 17.6652 16.2833 15.6809 15.5618L13.2456 15.2912L12.975 15.5618C12.975 15.7422 13.0201 16.0128 13.1103 16.3735C13.2005 16.7343 13.2456 17.1853 13.2456 17.7265V18.5382L13.7868 21.5147L13.5162 22.3265C13.6966 22.6873 13.6966 22.9579 13.5162 23.1382C13.3358 23.3186 12.7946 23.4088 11.8926 23.4088C11.8926 23.0481 12.073 22.6873 12.4338 22.3265L12.975 21.7853L12.4338 19.0794L11.8926 17.1853C11.8926 17.0049 11.8025 16.8245 11.6221 16.6441L11.3515 16.3735V17.4559C11.3515 18.3579 11.2613 18.9892 11.0809 19.35V21.2441V22.3265L10.8103 23.4088C10.8103 23.5892 10.1789 23.6794 8.91618 23.6794L9.99853 21.7853L10.2691 20.9735C10.2691 20.252 10.224 19.4402 10.1338 18.5382C10.0436 17.6363 9.81814 16.7343 9.45736 15.8324C8.91618 15.2912 8.4652 14.8402 8.10441 14.4794L7.29265 12.8559C6.93186 12.1343 6.75147 11.6833 6.75147 11.503C6.39069 11.1422 5.84951 10.2402 5.12794 8.79707L4.85735 8.52648C4.67696 8.34609 4.49657 8.34609 4.31618 8.52648H2.69265C1.97108 8.52648 1.5201 8.52648 1.33971 8.52648C1.15932 8.52648 0.888727 8.34609 0.527943 7.98531L0.257355 7.71472C0.257355 7.35393 0.392649 7.03825 0.663237 6.76766C0.933825 6.49707 1.24951 6.09119 1.6103 5.55001L2.15147 4.73825L1.88088 4.19707C1.70049 3.83629 1.70049 3.5657 1.88088 3.38531C1.5201 3.38531 1.24951 3.20491 1.06912 2.84413L0.798531 2.57354L1.88088 2.30295C2.24167 2.30295 2.51226 2.39315 2.69265 2.57354L3.23383 2.30295L2.42206 2.03236C2.06128 1.85197 1.88088 1.71668 1.88088 1.62648C1.88088 1.53629 1.97108 1.49119 2.15147 1.49119L2.96324 1.76178C3.32402 1.76178 3.54951 1.71668 3.63971 1.62648C3.7299 1.53629 4.04559 1.49119 4.58677 1.49119L5.12794 1.76178L4.85735 0.679423L5.39853 0.950011C5.57892 1.1304 5.66912 1.58138 5.66912 2.30295C5.84951 2.30295 6.0299 2.34805 6.2103 2.43825C6.39069 2.52844 6.48088 2.84413 6.48088 3.38531L9.18677 4.19707L13.5162 4.73825C15.5005 4.91864 17.9358 4.64805 20.8221 3.92648C22.0848 3.5657 23.1672 3.38531 24.0691 3.38531H25.1515L27.0456 2.84413C27.4064 2.84413 27.7672 2.93432 28.1279 3.11472C28.4887 3.29511 28.7593 3.5657 28.9397 3.92648C29.6613 4.64805 30.0221 6.36178 30.0221 9.06766C29.8417 10.3304 29.7515 11.3226 29.7515 12.0441L30.0221 13.3971L30.5632 15.0206C30.5632 15.5618 30.473 16.1931 30.2927 16.9147V18.8088L30.0221 21.7853L29.7515 21.5147L29.2103 18.2677L29.4809 15.8324V15.2912C29.3005 14.75 29.2554 14.0735 29.3456 13.2618C29.4358 12.45 29.4809 11.052 29.4809 9.06766V7.98531C29.4809 7.08334 29.3907 6.31668 29.2103 5.68531C29.0299 5.05393 28.6691 4.64805 28.1279 4.46766C27.9476 4.64805 27.9476 4.73825 28.1279 4.73825V5.00883Z" fill="#00A8AB"/>
</g>
<defs>
<clipPath id="clip0_1_37">
<rect width="30.05" height="23" fill="white" transform="matrix(1 0 0 -1 0.25 23.95)"/>
</clipPath>
</defs>
</svg>
