<svg width="25" height="26" viewBox="0 0 25 26" fill="none" xmlns="http://www.w3.org/2000/svg">
<rect x="0.5" y="0.72998" width="24" height="24" rx="12" stroke="#A4AEAE"/>
<path d="M6.58029 19.23V9.4118H8.08881V19.23H6.58029ZM7.34734 7.77544C7.0533 7.77544 6.79975 7.67529 6.58668 7.47501C6.37788 7.27472 6.27347 7.03396 6.27347 6.75271C6.27347 6.47146 6.37788 6.23069 6.58668 6.03041C6.79975 5.83012 7.0533 5.72998 7.34734 5.72998C7.64137 5.72998 7.89279 5.83012 8.1016 6.03041C8.31467 6.23069 8.4212 6.47146 8.4212 6.75271C8.4212 7.03396 8.31467 7.27472 8.1016 7.47501C7.89279 7.67529 7.64137 7.77544 7.34734 7.77544ZM12.3603 13.3237V19.23H10.8518V9.4118H12.3092V10.9459H12.437C12.6671 10.4473 13.0165 10.0467 13.4853 9.74419C13.954 9.43737 14.5592 9.28396 15.3006 9.28396C15.9654 9.28396 16.5471 9.42032 17.0457 9.69305C17.5442 9.96151 17.932 10.3706 18.209 10.9203C18.486 11.4658 18.6245 12.1561 18.6245 12.9913V19.23H17.116V13.0936C17.116 12.3223 16.9157 11.7215 16.5151 11.2911C16.1146 10.8564 15.5648 10.6391 14.866 10.6391C14.3844 10.6391 13.954 10.7435 13.5748 10.9523C13.1998 11.1611 12.9036 11.4658 12.6863 11.8663C12.469 12.2669 12.3603 12.7527 12.3603 13.3237Z" fill="#A4AEAE"/>
</svg>
