<?xml version="1.0" encoding="UTF-8"?>
<!DOCTYPE svg PUBLIC "-//W3C//DTD SVG 1.1//EN" "http://www.w3.org/Graphics/SVG/1.1/DTD/svg11.dtd">
<svg xmlns="http://www.w3.org/2000/svg" version="1.1" width="161px" height="40px" style="shape-rendering:geometricPrecision; text-rendering:geometricPrecision; image-rendering:optimizeQuality; fill-rule:evenodd; clip-rule:evenodd" xmlns:xlink="http://www.w3.org/1999/xlink">
<g><path style="opacity:1" fill="#848484" d="M 46.5,4.5 C 46.5,4.16667 46.5,3.83333 46.5,3.5C 51.8333,3.5 57.1667,3.5 62.5,3.5C 62.5,4.5 62.5,5.5 62.5,6.5C 58.1667,6.5 53.8333,6.5 49.5,6.5C 53.3123,5.67618 57.3123,5.17618 61.5,5C 56.5111,4.50074 51.5111,4.33407 46.5,4.5 Z"/></g>
<g><path style="opacity:1" fill="#2fb5b2" d="M 14.5,-0.5 C 15.5,-0.5 16.5,-0.5 17.5,-0.5C 15.0882,2.43796 13.2549,5.7713 12,9.5C 11.3333,14.8333 11.3333,20.1667 12,25.5C 11.518,16.8975 14.018,9.39746 19.5,3C 22.8649,0.842565 26.0316,1.00923 29,3.5C 29.6667,4.83333 29.6667,6.16667 29,7.5C 27.2942,8.30787 26.4609,9.6412 26.5,11.5C 34.535,13.363 38.035,18.363 37,26.5C 33.2229,32.0434 28.0562,33.8768 21.5,32C 13.7914,29.6443 6.45808,26.4776 -0.5,22.5C -0.5,19.5 -0.5,16.5 -0.5,13.5C 2.58628,6.74591 7.58628,2.07924 14.5,-0.5 Z"/></g>
<g><path style="opacity:1" fill="#b2e5e5" d="M 33.5,5.5 C 32.8333,6.5 32.1667,7.5 31.5,8.5C 31.238,7.02218 31.5713,5.68884 32.5,4.5C 33.1067,4.62358 33.44,4.95691 33.5,5.5 Z"/></g>
<g><path style="opacity:1" fill="#d1d1d1" d="M 137.5,9.5 C 138.708,8.21798 140.042,8.21798 141.5,9.5C 141.376,10.1067 141.043,10.44 140.5,10.5C 139.791,9.59603 138.791,9.26269 137.5,9.5 Z"/></g>
<g><path style="opacity:1" fill="#cbcbcb" d="M 89.5,9.5 C 93.97,8.51388 98.6367,8.18054 103.5,8.5C 103.824,15.3543 103.491,22.021 102.5,28.5C 102.5,28.1667 102.5,27.8333 102.5,27.5C 102.5,21.5 102.5,15.5 102.5,9.5C 98.1667,9.5 93.8333,9.5 89.5,9.5 Z"/></g>
<g><path style="opacity:1" fill="#4cbcb9" d="M 33.5,5.5 C 37.7777,9.16 39.611,13.8267 39,19.5C 36.6876,16.0205 33.8542,13.0205 30.5,10.5C 30.8627,9.81654 31.1961,9.14987 31.5,8.5C 32.1667,7.5 32.8333,6.5 33.5,5.5 Z"/></g>
<g><path style="opacity:1" fill="#c9c9c9" d="M 49.5,11.5 C 52.8499,11.335 56.1832,11.5017 59.5,12C 60.4158,12.2784 61.0825,12.7784 61.5,13.5C 60.8333,13.5 60.1667,13.5 59.5,13.5C 56.0588,12.9035 52.7254,12.2368 49.5,11.5 Z"/></g>
<g><path style="opacity:1" fill="#5e5e5e" d="M 89.5,9.5 C 93.8333,9.5 98.1667,9.5 102.5,9.5C 102.5,15.5 102.5,21.5 102.5,27.5C 100.856,22.4104 99.8563,17.077 99.5,11.5C 96.8333,11.5 94.1667,11.5 91.5,11.5C 91.5,12.8333 91.5,14.1667 91.5,15.5C 91.6641,18.1873 91.4974,20.854 91,23.5C 90.7996,25.3197 89.9663,26.653 88.5,27.5C 86.8008,27.6602 85.1341,27.4935 83.5,27C 86.4471,26.8882 87.7804,25.3882 87.5,22.5C 87.4379,17.9242 88.1045,13.5909 89.5,9.5 Z"/></g>
<g><path style="opacity:1" fill="#cacaca" d="M 99.5,11.5 C 99.5,11.8333 99.5,12.1667 99.5,12.5C 97.1667,12.5 94.8333,12.5 92.5,12.5C 92.7373,13.791 92.404,14.791 91.5,15.5C 91.5,14.1667 91.5,12.8333 91.5,11.5C 94.1667,11.5 96.8333,11.5 99.5,11.5 Z"/></g>
<g><path style="opacity:1" fill="#8a8a8a" d="M 109.5,9.5 C 109.389,10.1174 109.056,10.6174 108.5,11C 110.179,11.3947 111.845,11.228 113.5,10.5C 115.171,10.6682 116.504,11.3349 117.5,12.5C 116.178,12.67 115.011,12.3366 114,11.5C 110.564,12.0998 108.731,14.0998 108.5,17.5C 107.698,16.0484 107.198,14.3817 107,12.5C 106.617,13.056 106.117,13.3893 105.5,13.5C 105.833,11.1667 107.167,9.83333 109.5,9.5 Z"/></g>
<g><path style="opacity:1" fill="#626262" d="M 122.5,15.5 C 122.5,16.8333 122.5,18.1667 122.5,19.5C 117.456,19.1725 112.456,19.5059 107.5,20.5C 107.192,21.3081 106.692,21.9747 106,22.5C 105.502,19.5184 105.335,16.5184 105.5,13.5C 106.117,13.3893 106.617,13.056 107,12.5C 107.198,14.3817 107.698,16.0484 108.5,17.5C 112.226,17.8226 115.893,17.4892 119.5,16.5C 118.82,15.1401 118.153,13.8068 117.5,12.5C 116.504,11.3349 115.171,10.6682 113.5,10.5C 111.845,11.228 110.179,11.3947 108.5,11C 109.056,10.6174 109.389,10.1174 109.5,9.5C 116.12,6.70393 120.453,8.70393 122.5,15.5 Z"/></g>
<g><path style="opacity:1" fill="#8c8c8c" d="M 127.5,9.5 C 126.184,12.0866 125.517,15.0866 125.5,18.5C 125.833,21.5 126.167,24.5 126.5,27.5C 127.48,24.9135 127.813,22.2469 127.5,19.5C 127.833,19.5 128.167,19.5 128.5,19.5C 128.5,22.5 128.5,25.5 128.5,28.5C 127.167,28.5 125.833,28.5 124.5,28.5C 124.5,22.1667 124.5,15.8333 124.5,9.5C 125.5,8.16667 126.5,8.16667 127.5,9.5 Z"/></g>
<g><path style="opacity:1" fill="#878787" d="M 70.5,9.5 C 70.3893,10.1174 70.056,10.6174 69.5,11C 71.1786,11.3947 72.8453,11.228 74.5,10.5C 76.1705,10.6682 77.5039,11.3349 78.5,12.5C 77.1779,12.67 76.0113,12.3366 75,11.5C 71.5643,12.0998 69.731,14.0998 69.5,17.5C 72.8333,17.5 76.1667,17.5 79.5,17.5C 79.5,16.5 79.5,15.5 79.5,14.5C 80.4345,15.5676 80.7678,16.901 80.5,18.5C 76.5,18.5 72.5,18.5 68.5,18.5C 68.762,17.0222 68.4287,15.6888 67.5,14.5C 66.513,17.7683 66.1796,21.1016 66.5,24.5C 65.5655,23.4324 65.2322,22.099 65.5,20.5C 65.5,19.1667 65.5,17.8333 65.5,16.5C 65.4754,12.8602 67.142,10.5269 70.5,9.5 Z"/></g>
<g><path style="opacity:1" fill="#7e7e7e" d="M 99.5,11.5 C 99.8563,17.077 100.856,22.4104 102.5,27.5C 102.5,27.8333 102.5,28.1667 102.5,28.5C 101.5,28.5 100.5,28.5 99.5,28.5C 99.5,23.1667 99.5,17.8333 99.5,12.5C 99.5,12.1667 99.5,11.8333 99.5,11.5 Z"/></g>
<g><path style="opacity:1" fill="#b1b1b1" d="M 46.5,3.5 C 46.5,3.83333 46.5,4.16667 46.5,4.5C 46.5,12.1667 46.5,19.8333 46.5,27.5C 50.8333,27.5 55.1667,27.5 59.5,27.5C 55.03,28.4861 50.3633,28.8195 45.5,28.5C 45.1739,19.9832 45.5073,11.6499 46.5,3.5 Z"/></g>
<g><path style="opacity:1" fill="#505050" d="M 46.5,4.5 C 51.5111,4.33407 56.5111,4.50074 61.5,5C 57.3123,5.17618 53.3123,5.67618 49.5,6.5C 49.5,8.16667 49.5,9.83333 49.5,11.5C 52.7254,12.2368 56.0588,12.9035 59.5,13.5C 59.5,14.1667 59.1667,14.5 58.5,14.5C 55.1667,14.5 51.8333,14.5 48.5,14.5C 48.5,18.1667 48.5,21.8333 48.5,25.5C 51.8333,25.5 55.1667,25.5 58.5,25.5C 59.3382,25.8417 59.6716,26.5084 59.5,27.5C 55.1667,27.5 50.8333,27.5 46.5,27.5C 46.5,19.8333 46.5,12.1667 46.5,4.5 Z"/></g>
<g><path style="opacity:1" fill="#aaaaaa" d="M 58.5,14.5 C 58.5,14.8333 58.5,15.1667 58.5,15.5C 55.5,15.5 52.5,15.5 49.5,15.5C 49.5,18.5 49.5,21.5 49.5,24.5C 52.5,24.5 55.5,24.5 58.5,24.5C 58.5,24.8333 58.5,25.1667 58.5,25.5C 55.1667,25.5 51.8333,25.5 48.5,25.5C 48.5,21.8333 48.5,18.1667 48.5,14.5C 51.8333,14.5 55.1667,14.5 58.5,14.5 Z"/></g>
<g><path style="opacity:1" fill="#797979" d="M 127.5,9.5 C 128.468,11.6074 128.802,13.9407 128.5,16.5C 129.978,16.762 131.311,16.4287 132.5,15.5C 134.185,13.4293 135.852,11.4293 137.5,9.5C 138.791,9.26269 139.791,9.59603 140.5,10.5C 139.081,13.1004 137.415,15.6004 135.5,18C 137.364,20.6877 139.364,23.1877 141.5,25.5C 141.414,26.4959 141.748,27.3292 142.5,28C 140.833,28.6667 139.167,28.6667 137.5,28C 135.709,25.586 134.043,23.086 132.5,20.5C 131.311,19.5713 129.978,19.238 128.5,19.5C 128.167,19.5 127.833,19.5 127.5,19.5C 128.952,18.6981 130.618,18.1981 132.5,18C 130.866,17.5065 129.199,17.3398 127.5,17.5C 127.5,14.8333 127.5,12.1667 127.5,9.5 Z"/></g>
<g><path style="opacity:1" fill="#696969" d="M 59.5,13.5 C 60.1667,13.5 60.8333,13.5 61.5,13.5C 62.9063,13.9731 63.573,14.9731 63.5,16.5C 63.5,18.8333 63.5,21.1667 63.5,23.5C 63.1667,25.8333 61.8333,27.1667 59.5,27.5C 59.6716,26.5084 59.3382,25.8417 58.5,25.5C 58.5,25.1667 58.5,24.8333 58.5,24.5C 61.1667,21.5 61.1667,18.5 58.5,15.5C 58.5,15.1667 58.5,14.8333 58.5,14.5C 59.1667,14.5 59.5,14.1667 59.5,13.5 Z"/></g>
<g><path style="opacity:1" fill="#7b7b7b" d="M 160.5,26.5 C 160.5,26.8333 160.5,27.1667 160.5,27.5C 159.039,28.6857 157.705,28.6857 156.5,27.5C 155.737,26.7321 154.737,26.2321 153.5,26C 154.056,25.6174 154.389,25.1174 154.5,24.5C 154.5,22.5 154.5,20.5 154.5,18.5C 151.417,18.916 148.417,19.5826 145.5,20.5C 144.402,21.6009 144.235,22.9343 145,24.5C 147.166,26.1213 149.666,26.9546 152.5,27C 151.944,27.3826 151.611,27.8826 151.5,28.5C 150.054,29.6129 148.387,29.7796 146.5,29C 144.677,28.0027 143.01,26.8361 141.5,25.5C 141.104,22.5178 141.771,19.8511 143.5,17.5C 147.309,15.9071 151.309,15.0738 155.5,15C 154.236,12.9916 152.403,11.8249 150,11.5C 147.945,12.6922 145.945,12.6922 144,11.5C 143.383,10.5509 143.549,9.71752 144.5,9C 148.167,8.33333 151.833,8.33333 155.5,9C 156.667,10.1667 157.833,11.3333 159,12.5C 159.174,17.3514 159.674,22.0181 160.5,26.5 Z M 154.5,24.5 C 152.218,25.3897 149.885,25.5564 147.5,25C 145.963,23.8904 145.297,22.3904 145.5,20.5C 148.417,19.5826 151.417,18.916 154.5,18.5C 154.5,20.5 154.5,22.5 154.5,24.5 Z"/></g>
<g><path style="opacity:1" fill="#cacaca" d="M 63.5,16.5 C 64.1667,16.5 64.8333,16.5 65.5,16.5C 65.5,17.8333 65.5,19.1667 65.5,20.5C 64.8333,21.5 64.1667,22.5 63.5,23.5C 63.5,21.1667 63.5,18.8333 63.5,16.5 Z"/></g>
<g><path style="opacity:1" fill="#969696" d="M 80.5,10.5 C 83.5674,13.0155 84.9007,16.3488 84.5,20.5C 79.0557,19.8917 74.0557,20.5583 69.5,22.5C 68.596,21.791 68.2627,20.791 68.5,19.5C 73.1667,19.5 77.8333,19.5 82.5,19.5C 82.7896,16.2153 82.123,13.2153 80.5,10.5 Z"/></g>
<g><path style="opacity:1" fill="#464646" d="M 127.5,9.5 C 127.5,12.1667 127.5,14.8333 127.5,17.5C 129.199,17.3398 130.866,17.5065 132.5,18C 130.618,18.1981 128.952,18.6981 127.5,19.5C 127.813,22.2469 127.48,24.9135 126.5,27.5C 126.167,24.5 125.833,21.5 125.5,18.5C 125.517,15.0866 126.184,12.0866 127.5,9.5 Z"/></g>
<g><path style="opacity:1" fill="#e6e6e6" d="M 124.5,9.5 C 124.5,15.8333 124.5,22.1667 124.5,28.5C 123.833,25.8333 123.167,23.1667 122.5,20.5C 122.5,20.1667 122.5,19.8333 122.5,19.5C 122.5,18.1667 122.5,16.8333 122.5,15.5C 123.167,13.5 123.833,11.5 124.5,9.5 Z"/></g>
<g><path style="opacity:1" fill="#616161" d="M 80.5,10.5 C 82.123,13.2153 82.7896,16.2153 82.5,19.5C 77.8333,19.5 73.1667,19.5 68.5,19.5C 68.2627,20.791 68.596,21.791 69.5,22.5C 70.3382,22.8417 70.6716,23.5084 70.5,24.5C 70.6107,25.1174 70.944,25.6174 71.5,26C 74.367,26.8007 77.0336,26.6341 79.5,25.5C 80.1667,24.1667 80.8333,24.1667 81.5,25.5C 81.5,26.1667 81.5,26.8333 81.5,27.5C 75.6894,30.6976 70.6894,29.6976 66.5,24.5C 66.1796,21.1016 66.513,17.7683 67.5,14.5C 68.4287,15.6888 68.762,17.0222 68.5,18.5C 72.5,18.5 76.5,18.5 80.5,18.5C 80.7678,16.901 80.4345,15.5676 79.5,14.5C 79.1667,13.8333 78.8333,13.1667 78.5,12.5C 77.5039,11.3349 76.1705,10.6682 74.5,10.5C 72.8453,11.228 71.1786,11.3947 69.5,11C 70.056,10.6174 70.3893,10.1174 70.5,9.5C 73.3035,8.36216 76.3035,8.19549 79.5,9C 80.056,9.38258 80.3893,9.88258 80.5,10.5 Z"/></g>
<g><path style="opacity:1" fill="#858585" d="M 105.5,13.5 C 105.335,16.5184 105.502,19.5184 106,22.5C 106.692,21.9747 107.192,21.3081 107.5,20.5C 112.456,19.5059 117.456,19.1725 122.5,19.5C 122.5,19.8333 122.5,20.1667 122.5,20.5C 117.786,20.1734 113.12,20.5067 108.5,21.5C 108.968,23.1338 109.968,24.3005 111.5,25C 113.81,25.4966 116.143,25.6633 118.5,25.5C 114.805,26.2328 111.138,26.5661 107.5,26.5C 106.21,25.9423 105.377,24.9423 105,23.5C 104.192,19.9733 104.359,16.6399 105.5,13.5 Z"/></g>
<g><path style="opacity:1" fill="#adadad" d="M 70.5,24.5 C 73.4299,25.299 76.4299,25.6323 79.5,25.5C 77.0336,26.6341 74.367,26.8007 71.5,26C 70.944,25.6174 70.6107,25.1174 70.5,24.5 Z"/></g>
<g><path style="opacity:1" fill="#c1c1c1" d="M 118.5,25.5 C 119.209,24.596 120.209,24.2627 121.5,24.5C 121.737,25.791 121.404,26.791 120.5,27.5C 120.5,26.1667 119.833,25.5 118.5,25.5 Z"/></g>
<g><path style="opacity:1" fill="#424242" d="M 107.5,26.5 C 111.138,26.5661 114.805,26.2328 118.5,25.5C 119.833,25.5 120.5,26.1667 120.5,27.5C 116.102,27.7059 111.768,27.3726 107.5,26.5 Z"/></g>
<g><path style="opacity:1" fill="#a0a0a0" d="M 145.5,20.5 C 145.297,22.3904 145.963,23.8904 147.5,25C 149.885,25.5564 152.218,25.3897 154.5,24.5C 154.389,25.1174 154.056,25.6174 153.5,26C 154.737,26.2321 155.737,26.7321 156.5,27.5C 154.784,27.6287 153.117,27.962 151.5,28.5C 151.611,27.8826 151.944,27.3826 152.5,27C 149.666,26.9546 147.166,26.1213 145,24.5C 144.235,22.9343 144.402,21.6009 145.5,20.5 Z"/></g>
<g><path style="opacity:1" fill="#a1a1a1" d="M 87.5,22.5 C 87.7804,25.3882 86.4471,26.8882 83.5,27C 85.1341,27.4935 86.8008,27.6602 88.5,27.5C 88.1344,28.6946 87.301,29.3613 86,29.5C 84.415,28.9561 82.915,28.2894 81.5,27.5C 81.5,26.8333 81.5,26.1667 81.5,25.5C 84.3579,25.9717 86.3579,24.9717 87.5,22.5 Z"/></g>
<g><path style="opacity:1" fill="#949494" d="M 107.5,26.5 C 111.768,27.3726 116.102,27.7059 120.5,27.5C 115.912,30.3456 111.578,30.0123 107.5,26.5 Z"/></g>
<g><path style="opacity:1" fill="#5fc2c0" d="M 13.5,31.5 C 12.1779,31.33 11.0113,31.6634 10,32.5C 9.16667,30 8,29.8333 6.5,32C 7.30501,33.1127 7.97168,34.2794 8.5,35.5C 4.70552,33.6291 2.03885,30.6291 0.5,26.5C 0.833333,26.1667 1.16667,25.8333 1.5,25.5C 5.59188,27.5459 9.59188,29.5459 13.5,31.5 Z"/></g>
<g><path style="opacity:1" fill="#16b0ad" d="M 13.5,31.5 C 14.161,33.5564 13.8277,35.5564 12.5,37.5C 10.847,37.3404 9.51369,36.6737 8.5,35.5C 7.97168,34.2794 7.30501,33.1127 6.5,32C 8,29.8333 9.16667,30 10,32.5C 11.0113,31.6634 12.1779,31.33 13.5,31.5 Z"/></g>
<g><path style="opacity:1" fill="#8fd7d4" d="M 13.5,31.5 C 15.403,31.7959 17.0697,32.4625 18.5,33.5C 16.8212,33.2852 15.8212,33.9519 15.5,35.5C 14.8423,36.3984 14.1757,37.3984 13.5,38.5C 12.8933,38.3764 12.56,38.0431 12.5,37.5C 13.8277,35.5564 14.161,33.5564 13.5,31.5 Z"/></g>
<g><path style="opacity:1" fill="#4dbcb9" d="M 18.5,33.5 C 23.1358,34.1489 27.8024,34.6489 32.5,35C 29.676,37.0788 26.676,38.5788 23.5,39.5C 21.1667,39.5 18.8333,39.5 16.5,39.5C 15.7659,38.2921 15.4326,36.9587 15.5,35.5C 15.8212,33.9519 16.8212,33.2852 18.5,33.5 Z"/></g>
<g><path style="opacity:1" fill="#b5b5b5" d="M 74.5,39.5 C 73.8333,39.5 73.1667,39.5 72.5,39.5C 71.6751,37.6782 71.3418,36.0115 71.5,34.5C 70.6781,36.1386 70.0114,37.8053 69.5,39.5C 69.1667,39.5 68.8333,39.5 68.5,39.5C 68.5209,34.6341 67.5209,34.6341 65.5,39.5C 64.8333,39.5 64.1667,39.5 63.5,39.5C 62.5,38.1667 61.5,38.1667 60.5,39.5C 59.5,39.5 58.5,39.5 57.5,39.5C 56.5,38.1667 55.5,38.1667 54.5,39.5C 53.5,39.5 52.5,39.5 51.5,39.5C 50.8333,38.1667 50.1667,38.1667 49.5,39.5C 48.5,39.5 47.5,39.5 46.5,39.5C 46.3893,38.8826 46.056,38.3826 45.5,38C 46.8333,37.6667 48.1667,37.3333 49.5,37C 46.5363,36.1597 46.203,35.1597 48.5,34C 46.3553,33.2569 46.1886,32.4235 48,31.5C 50.5149,32.8715 53.1816,33.8715 56,34.5C 57.0374,31.6162 58.8707,30.9496 61.5,32.5C 60.4937,33.3957 60.4937,34.0623 61.5,34.5C 66.4351,33.5524 71.4351,33.219 76.5,33.5C 76.7413,35.8863 76.0746,37.8863 74.5,39.5 Z M 63.5,35.5 C 66.0009,35.5109 66.1676,36.1776 64,37.5C 63.5357,36.9056 63.369,36.2389 63.5,35.5 Z"/></g>
<g><path style="opacity:1" fill="#b3b3b3" d="M 82.5,39.5 C 81.8333,39.5 81.1667,39.5 80.5,39.5C 77.6526,36.899 77.9859,34.899 81.5,33.5C 85.0141,34.899 85.3474,36.899 82.5,39.5 Z M 80.5,35.5 C 82.337,35.6395 82.6704,36.3061 81.5,37.5C 80.7025,37.0431 80.3691,36.3764 80.5,35.5 Z"/></g>
<g><path style="opacity:1" fill="#bababa" d="M 130.5,39.5 C 130.167,39.5 129.833,39.5 129.5,39.5C 128.833,38.1667 128.167,38.1667 127.5,39.5C 126.833,39.5 126.167,39.5 125.5,39.5C 124.833,38.1667 124.167,38.1667 123.5,39.5C 122.5,39.5 121.5,39.5 120.5,39.5C 120.167,38.1667 119.833,38.1667 119.5,39.5C 119.167,39.5 118.833,39.5 118.5,39.5C 117.5,35.5 116.5,35.5 115.5,39.5C 115.167,39.5 114.833,39.5 114.5,39.5C 114.442,33.0143 113.776,33.0143 112.5,39.5C 112.167,39.5 111.833,39.5 111.5,39.5C 110.5,36.8333 109.5,36.8333 108.5,39.5C 107.5,39.5 106.5,39.5 105.5,39.5C 104.833,38.1667 104.167,38.1667 103.5,39.5C 102.5,39.5 101.5,39.5 100.5,39.5C 99.469,38.7515 98.3024,38.0848 97,37.5C 96.2828,38.0442 95.7828,38.7109 95.5,39.5C 94.8333,39.5 94.1667,39.5 93.5,39.5C 92.5,38.1667 91.5,38.1667 90.5,39.5C 90.1667,39.5 89.8333,39.5 89.5,39.5C 89.2144,37.0673 88.5477,37.0673 87.5,39.5C 87.1667,39.5 86.8333,39.5 86.5,39.5C 87.3503,37.4149 87.6837,35.4149 87.5,33.5C 89.638,33.6381 91.8047,33.6381 94,33.5C 94.9454,33.9054 95.6121,34.572 96,35.5C 97.126,34.0564 98.626,33.3898 100.5,33.5C 103.914,34.152 107.414,34.152 111,33.5C 113.302,33.6004 115.302,34.267 117,35.5C 119.173,33.099 121.506,33.099 124,35.5C 124.519,34.4844 125.353,33.8178 126.5,33.5C 127.955,34.3898 129.289,34.3898 130.5,33.5C 130.668,35.4183 130.668,37.4183 130.5,39.5 Z"/></g>
</svg>
