<?xml version="1.0" standalone="no"?>
<!DOCTYPE svg PUBLIC "-//W3C//DTD SVG 20010904//EN"
 "http://www.w3.org/TR/2001/REC-SVG-20010904/DTD/svg10.dtd">
<svg version="1.0" xmlns="http://www.w3.org/2000/svg"
 width="161.000000pt" height="40.000000pt" viewBox="0 0 161.000000 40.000000"
 preserveAspectRatio="xMidYMid meet">

<g transform="translate(0.000000,40.000000) scale(0.100000,-0.100000)"
fill="#000000" stroke="none">
<path d="M470 238 l0 -118 63 0 c81 0 107 17 107 69 0 56 -17 72 -86 80 -55 6
-59 8 -62 34 l-3 27 65 0 c46 0 66 4 66 13 0 8 -22 12 -75 12 l-75 0 0 -117z
m139 -20 c12 -21 13 -31 3 -52 -10 -23 -17 -26 -67 -26 l-55 0 0 48 c0 27 3
52 7 56 4 4 28 6 52 4 37 -2 48 -8 60 -30z"/>
<path d="M698 290 c-9 -6 -22 -26 -28 -45 -29 -89 35 -154 128 -129 38 11 24
22 -22 17 -35 -4 -48 -1 -65 16 -41 41 -29 53 52 50 l72 -2 -2 32 c-2 47 -28
71 -77 71 -23 0 -49 -5 -58 -10z m100 -22 c7 -7 12 -22 12 -35 0 -21 -4 -23
-55 -23 -61 0 -75 13 -55 49 8 16 20 21 48 21 21 0 43 -5 50 -12z"/>
<path d="M896 260 c-3 -22 -9 -59 -12 -81 -4 -29 -12 -43 -25 -46 -25 -7 -24
-23 1 -23 29 0 47 36 55 108 l7 63 41 -3 40 -3 -2 -77 c-2 -65 0 -78 13 -78
13 0 16 15 16 90 l0 90 -64 0 -64 0 -6 -40z"/>
<path d="M1088 290 c-23 -14 -40 -72 -32 -106 13 -57 60 -83 124 -69 46 10 36
23 -14 18 -35 -4 -48 -1 -65 16 -40 40 -29 51 54 51 72 0 75 1 75 24 0 13 -9
35 -21 50 -16 21 -29 26 -62 26 -23 0 -50 -5 -59 -10z m100 -22 c7 -7 12 -22
12 -35 0 -21 -4 -23 -54 -23 -63 0 -74 11 -52 45 18 28 72 35 94 13z"/>
<path d="M1252 208 c3 -95 20 -129 26 -50 3 38 6 42 30 42 21 0 33 -9 52 -40
14 -22 30 -40 37 -40 18 0 17 6 -16 54 l-29 42 19 24 c34 44 41 60 26 60 -8 0
-25 -16 -38 -35 -18 -26 -31 -35 -51 -35 -25 0 -28 3 -28 35 0 25 -4 35 -15
35 -13 0 -15 -15 -13 -92z"/>
<path d="M1450 291 c0 -6 24 -11 53 -13 45 -3 52 -6 55 -25 3 -21 -1 -23 -40
-23 -56 0 -88 -22 -88 -60 0 -38 38 -65 78 -55 15 4 41 8 57 8 l30 1 -3 70
c-5 91 -17 106 -89 106 -29 0 -53 -4 -53 -9z m110 -106 c0 -28 -5 -38 -24 -46
-32 -15 -73 -4 -81 22 -9 27 10 47 48 52 18 2 38 5 45 5 7 1 12 -11 12 -33z"/>
</g>
</svg>
