<svg width="23" height="23" viewBox="0 0 23 23" fill="none" xmlns="http://www.w3.org/2000/svg">
<path d="M4.64118 11.3595C5.67647 11.3595 6.58235 10.9712 7.35882 10.1947C8.13529 9.41828 8.52353 8.5124 8.52353 7.4771C8.52353 6.44181 8.13529 5.57906 7.35882 4.88887C6.58235 4.19867 5.67647 3.85357 4.64118 3.85357C3.60588 3.85357 2.74314 4.19867 2.05294 4.88887C1.36275 5.57906 1.01765 6.44181 1.01765 7.4771C1.01765 8.5124 1.36275 9.41828 2.05294 10.1947C2.74314 10.9712 3.60588 11.3595 4.64118 11.3595ZM4.64118 5.92416C5.15882 5.92416 5.54706 6.09671 5.80588 6.44181C6.06471 6.78691 6.19412 7.17514 6.19412 7.60651C6.19412 8.03789 6.06471 8.38298 5.80588 8.64181C5.54706 8.90063 5.20196 9.03004 4.77059 9.03004C4.33922 9.03004 3.95098 8.90063 3.60588 8.64181C3.26078 8.38298 3.08824 8.03789 3.08824 7.60651C3.08824 7.17514 3.26078 6.78691 3.60588 6.44181C3.95098 6.09671 4.29608 5.92416 4.64118 5.92416ZM8.52353 11.6183C8.35098 11.4457 8.13529 11.3595 7.87647 11.3595C7.61765 11.3595 7.40196 11.4457 7.22941 11.6183L5.93529 12.1359C5.5902 12.3085 5.15882 12.3947 4.64118 12.3947C3.77843 12.3947 2.91569 12.1359 2.05294 11.6183C1.88039 11.4457 1.66471 11.3595 1.40588 11.3595C1.14706 11.3595 0.931373 11.4889 0.758824 11.7477C0.586275 12.0065 0.5 12.2653 0.5 12.5242C0.5 12.783 0.586275 12.9987 0.758824 13.1712L1.53529 13.6889C2.05294 13.8614 2.65686 14.034 3.34706 14.2065L1.27647 16.5359C1.10392 16.7085 1.01765 16.9242 1.01765 17.183C1.01765 17.4418 1.10392 17.6575 1.27647 17.83C1.44902 18.0026 1.70784 18.0889 2.05294 18.0889C2.39804 18.0889 2.65686 18.0026 2.82941 17.83L4.64118 15.7595L6.97059 17.83C7.14314 18.0026 7.35882 18.0889 7.61765 18.0889C7.87647 18.0889 8.09216 18.0026 8.26471 17.83C8.43726 17.6575 8.52353 17.4418 8.52353 17.183C8.52353 16.9242 8.43726 16.6222 8.26471 16.2771L5.93529 14.2065C6.62549 14.034 7.22941 13.7751 7.74706 13.43L8.52353 13.1712C8.69608 12.9987 8.78235 12.783 8.78235 12.5242C8.78235 12.2653 8.69608 11.9634 8.52353 11.6183Z" fill="#A4AEAE"/>
</svg>
