<svg width="14" height="10" viewBox="0 0 14 10" fill="none" xmlns="http://www.w3.org/2000/svg">
<path d="M13.7 2.51222C13.7 2.33967 13.6569 2.12398 13.5706 1.86516C13.4843 1.60634 13.3549 1.34751 13.1824 1.08869C13.0098 0.829865 12.6647 0.700454 12.1471 0.700454L11.8882 0.441629C10.6804 0.441629 9.12745 0.441629 7.22941 0.441629L2.31176 0.700454C1.79412 0.700454 1.44902 0.829865 1.27647 1.08869C1.10392 1.34751 0.931373 1.64947 0.758824 1.99457L0.5 4.58281L0.758824 7.68869V8.20634C0.931373 8.72398 1.10392 9.06908 1.27647 9.24163C1.44902 9.41418 1.88039 9.58673 2.57059 9.75928H5.41765H12.1471C12.6647 9.58673 13.0098 9.41418 13.1824 9.24163C13.3549 9.06908 13.5275 8.72398 13.7 8.20634L13.9588 5.6181L13.7 2.51222ZM5.93529 6.91222V3.02987L9.55882 4.84163L5.93529 6.91222Z" fill="#A4AEAE"/>
</svg>
